<?xml version="1.0" encoding="utf-8"?>
<!-- Generator: Adobe Illustrator 27.0.1, SVG Export Plug-In . SVG Version: 6.00 Build 0)  -->
<svg version="1.1" id="Layer_1" xmlns="http://www.w3.org/2000/svg" xmlns:xlink="http://www.w3.org/1999/xlink" x="0px" y="0px"
	 viewBox="0 0 90.4 44.1" style="enable-background:new 0 0 90.4 44.1;" xml:space="preserve">
<path d="M2,43.8c0.4,0,0.9-0.2,1.2-0.5l38-38c2.2-2.2,5.7-2.2,7.9,0l38,37.9c0.4,0.4,0.8,0.5,1.2,0.5c0.4,0,0.9-0.2,1.2-0.5
	c0.7-0.7,0.7-1.8,0-2.5l-38-38c-1.8-1.8-4.1-2.6-6.4-2.6h0c-2.3,0-4.6,0.9-6.4,2.6l-38,38c-0.7,0.7-0.7,1.8,0,2.5
	C1.1,43.6,1.5,43.8,2,43.8L2,43.8z"/>
</svg>
