<?xml version="1.0" encoding="utf-8"?>
<!-- Generator: Adobe Illustrator 27.0.1, SVG Export Plug-In . SVG Version: 6.00 Build 0)  -->
<svg version="1.1" id="Layer_1" xmlns="http://www.w3.org/2000/svg" xmlns:xlink="http://www.w3.org/1999/xlink" x="0px" y="0px"
	 viewBox="0 0 90.4 44.1" style="enable-background:new 0 0 90.4 44.1;" xml:space="preserve">
<path d="M88.4,0.2c-0.4,0-0.9,0.2-1.2,0.5l-38,38c-2.2,2.2-5.7,2.2-7.9,0L3.2,0.7C2.9,0.4,2.4,0.2,2,0.2c-0.4,0-0.9,0.2-1.2,0.5
	C0,1.4,0,2.5,0.7,3.2l38,38c1.8,1.8,4.1,2.6,6.4,2.6h0c2.3,0,4.6-0.9,6.4-2.6l38-38c0.7-0.7,0.7-1.8,0-2.5
	C89.3,0.4,88.8,0.2,88.4,0.2L88.4,0.2z"/>
</svg>
