<?xml version="1.0" encoding="utf-8"?>
<!-- Generator: Adobe Illustrator 27.0.1, SVG Export Plug-In . SVG Version: 6.00 Build 0)  -->
<svg version="1.1" id="Layer_1" xmlns:serif="http://www.serif.com/"
	 xmlns="http://www.w3.org/2000/svg" xmlns:xlink="http://www.w3.org/1999/xlink" x="0px" y="0px" viewBox="0 0 616 612"
	 style="enable-background:new 0 0 616 612;" xml:space="preserve">
<style type="text/css">
	.st0{fill-rule:evenodd;clip-rule:evenodd;}
	.st1{fill:#FFFFFF;}
</style>
<path class="st0" d="M539.5,0.3c41.3,0,74.8,33.5,74.8,74.8v462.5c0,41.3-33.5,74.8-74.8,74.8H77.1c-41.3,0-74.8-33.5-74.8-74.8
	V75.1c0-41.3,33.5-74.8,74.8-74.8L539.5,0.3L539.5,0.3z"/>
<path class="st1" d="M346.9,405.8c12-3,23.8-5.2,35.1-9c33.6-11.2,50.8-36.1,56-70c3.1-20.7,4-41.4-5.1-61.1
	c-2.9-6.3-7.3-11.9-10.5-18c-1.3-2.6-2.6-6.1-1.9-8.7c3.8-16,2.8-31.6-2-47.1c-1.3-4.2-3.9-6-7.7-4.8c-10.8,3.3-22.7,5-31.7,11
	c-13.4,9-25.8,9.9-41.2,6.7c-24.5-5.1-49.6-3.5-74,2.7c-5,1.3-8.8,1-13.2-2.1c-12.3-8.4-25.4-15.2-40.3-17.9
	c-9.4-1.7-10.8-1-13.3,8.3c-3.9,14.6-4.6,29.2-0.6,44c0.6,2.1-0.1,5.3-1.4,7c-11.5,14.5-17.6,30.9-18.2,49.4
	c-0.6,16.7,0.8,33.2,6.2,49.1c11.1,33.1,35.9,49.7,68.5,56.6c5.7,1.2,11.6,2.1,16.3,3c-3.3,8.9-6.6,18.1-10.3,27.2
	c-0.6,1.4-2.9,2.5-4.6,3.2c-22.4,8.8-41.5,2.7-54.3-17.6c-6.9-10.9-15.1-19.8-28.2-22.9c-4.9-1.1-10-1.7-14.9,3.4
	c2.5,2.6,4.6,5.7,7.5,7.6c11.2,7.4,18.8,17.7,23.2,30.1c9.3,25.8,33.7,35.3,57.8,32.5c4.1-0.5,8.2-1.1,13-1.8
	c0,12.7,0.5,25.2-0.2,37.5c-0.4,7.4-7.9,11-16.2,7.6c-12-5-24.3-9.9-35.4-16.7c-58.8-35.9-92.7-88.5-101.8-156.7
	c-11.9-89.3,33.8-175.8,113.9-217C292,82.8,387,96.9,447.7,155c35.6,34.1,57.7,75.4,64.8,124.1c14.9,100.9-40.5,196-133.2,231.5
	c-1.4,0.5-2.8,1.1-4.3,1.5c-9.7,2.6-15.5-1.7-15.5-11.6c0-19,0-38,0.1-57.1C359.7,429.4,356.4,416.6,346.9,405.8z"/>
</svg>
