<?xml version="1.0" encoding="utf-8"?>
<!-- Generator: Adobe Illustrator 27.0.1, SVG Export Plug-In . SVG Version: 6.00 Build 0)  -->
<svg version="1.1" id="Layer_1" xmlns:serif="http://www.serif.com/"
	 xmlns="http://www.w3.org/2000/svg" xmlns:xlink="http://www.w3.org/1999/xlink" x="0px" y="0px" viewBox="0 0 614 612"
	 style="enable-background:new 0 0 614 612;" xml:space="preserve">
<style type="text/css">
	.st0{fill-rule:evenodd;clip-rule:evenodd;}
	.st1{fill:#FFFFFF;}
</style>
<path class="st0" d="M538-0.5c41.3,0,74.8,33.5,74.8,74.8v462.5c0,41.3-33.5,74.8-74.8,74.8H75.6c-41.3,0-74.8-33.5-74.8-74.8V74.3
	C0.8,33,34.3-0.5,75.6-0.5H538L538-0.5z"/>
<g>
	<path class="st1" d="M309.5,235.2c-23.3,0-45,0-66.7,0c-25.5,0-51,0.2-76.5-0.1c-18.4-0.2-27.9-9.5-28.2-27.8
		c-0.4-26.8-0.4-53.5,0-80.3c0.3-18.3,10-27.3,28.4-27.4c38.5-0.1,76.9-0.2,115.4,0c16.6,0.1,27,8.4,27.3,24.5
		C310.1,160.4,309.5,196.7,309.5,235.2z"/>
	<path class="st1" d="M309.6,377.2c0,36.6,0.4,72.2-0.2,107.7c-0.3,17-10,26.2-26.9,26.4c-39.3,0.3-78.6,0.3-117.9,0
		c-16.2-0.1-26-9.3-26.4-25.6c-0.7-28-0.6-56,0-84c0.3-15.4,9.8-25.4,23.7-25.5c47.2-0.4,94.5-0.1,141.7-0.1
		C305.2,376,306.8,376.6,309.6,377.2z"/>
	<path class="st1" d="M311.7,237.7c6.4,0,12.1,0,17.9,0c41,0,82-0.1,123,0c20.8,0.1,28.8,7.9,29,28.8c0.3,25.9,0.3,51.9,0,77.8
		c-0.2,20.7-8.3,28.8-29.1,28.9c-43.5,0.2-87,0.1-130.5,0c-3.2,0-6.4-0.6-10.2-1C311.7,327.8,311.7,284,311.7,237.7z"/>
</g>
</svg>
