<?xml version="1.0" encoding="utf-8"?>
<!-- Generator: Adobe Illustrator 27.0.1, SVG Export Plug-In . SVG Version: 6.00 Build 0)  -->
<svg version="1.1" id="Layer_1" xmlns:serif="http://www.serif.com/"
	 xmlns="http://www.w3.org/2000/svg" xmlns:xlink="http://www.w3.org/1999/xlink" x="0px" y="0px" viewBox="0 0 614 612"
	 style="enable-background:new 0 0 614 612;" xml:space="preserve">
<g>
	<path d="M538.3-0.5H76C34.7-0.5,1.2,33,1.2,74.3v462.5c0,41.3,33.5,74.8,74.8,74.8h462.4c41.3,0,74.8-33.5,74.8-74.8V74.3
		C613.1,33,579.6-0.5,538.3-0.5z M307.2,49c127.4,54,217.7,170.2,238.7,306.9h-59.8l-89.2-131.1c-7-9.3-20.3-11.3-29.6-4.3
		c-1.6,1.2-3,2.6-4.3,4.3L341,257.2l-52.6-77.3c-7.1-9.3-20.4-11.2-29.8-4.1c-1.5,1.2-2.9,2.5-4.1,4.1l-119.5,176H68.4
		C89.4,219.2,179.7,103,307.2,49z M436.6,355.9H323.5l56.5-83.3L436.6,355.9z M316.3,293.6L274,355.9h-89.5l87-128.1L316.3,293.6z
		 M309.7,508.8c-1.8,10-5.6,19.6-11.2,28.2c-83.8-2.8-165.3-28.7-235.4-74.8v-37.6c0-9.5,0-18.6,1-27.8h204.5
		c-0.3,0.9-0.7,1.7-1.1,2.5c-10.3,29.1-0.3,61.5,24.6,79.8C308.2,491.8,311.3,497,309.7,508.8z M551.2,462.1
		c-61.9,40.8-132.7,65.9-206.5,73.2c2.5-6.6,4.4-13.4,5.5-20.3c5.4-37.9-18.6-56.6-32.9-67.8c-10.8-7.2-15.5-20.7-11.4-33
		c2.4-6,5.4-11.7,9-17h235.3v-0.3c0.5,9.2,1,18.3,1,27.8V462.1z"/>
</g>
</svg>
