<?xml version="1.0" encoding="utf-8"?>
<!-- Generator: Adobe Illustrator 27.0.1, SVG Export Plug-In . SVG Version: 6.00 Build 0)  -->
<svg version="1.1" id="Layer_1" xmlns:serif="http://www.serif.com/"
	 xmlns="http://www.w3.org/2000/svg" xmlns:xlink="http://www.w3.org/1999/xlink" x="0px" y="0px" viewBox="0 0 614 612"
	 style="enable-background:new 0 0 614 612;" xml:space="preserve">
<style type="text/css">
	.st0{fill-rule:evenodd;clip-rule:evenodd;}
	.st1{fill:#FFFFFF;}
</style>
<path class="st0" d="M538-0.5c41.3,0,74.8,33.5,74.8,74.8v462.5c0,41.3-33.5,74.8-74.8,74.8H75.6c-41.3,0-74.8-33.5-74.8-74.8V74.3
	C0.8,33,34.2-0.5,75.6-0.5H538L538-0.5z"/>
<path class="st1" d="M435.9,102.7h68.8L354.3,274.6l176.9,233.9H392.7L284.1,366.7L160,508.5H91.2L252,324.5L82.2,102.5h142.1
	l98.1,129.6L435.9,102.7z M411.7,467.3h38.1L203.7,141.7h-40.9L411.7,467.3z"/>
</svg>
