<?xml version="1.0" encoding="utf-8"?>
<!-- Generator: Adobe Illustrator 27.0.1, SVG Export Plug-In . SVG Version: 6.00 Build 0)  -->
<svg version="1.1" id="Layer_1" xmlns:serif="http://www.serif.com/"
	 xmlns="http://www.w3.org/2000/svg" xmlns:xlink="http://www.w3.org/1999/xlink" x="0px" y="0px" viewBox="0 0 614 612"
	 style="enable-background:new 0 0 614 612;" xml:space="preserve">
<g>
	<polygon points="162.8,141.7 411.7,467.3 449.8,467.3 203.7,141.7 	"/>
	<path d="M538-0.5H75.6C34.2-0.5,0.8,33,0.8,74.3v462.5c0,41.3,33.5,74.8,74.8,74.8H538c41.3,0,74.8-33.5,74.8-74.8V74.3
		C612.8,33,579.3-0.5,538-0.5z M392.7,508.5L284.1,366.7L160,508.5H91.2l160.8-184l-169.8-222h142.1l98.1,129.6l113.5-129.4h68.8
		L354.3,274.6l176.9,233.9H392.7z"/>
</g>
</svg>
